<svg width="52" height="51" viewBox="0 0 52 51" fill="none" xmlns="http://www.w3.org/2000/svg">
<path d="M42.6875 23.375V22.3125C42.6875 12.9232 35.0768 5.3125 25.6875 5.3125C16.2982 5.3125 8.6875 12.9232 8.6875 22.3125V23.375" stroke="white" stroke-width="4" stroke-linecap="round" stroke-linejoin="round"/>
<path d="M8.6875 36.125C8.6875 36.125 6.5625 41.4375 10.8125 43.5625C15.0625 45.6875 36.3125 45.6875 40.5625 43.5625C44.8125 41.4375 42.6875 36.125 42.6875 36.125" stroke="white" stroke-width="4" stroke-linecap="round" stroke-linejoin="round"/>
<path d="M38.4375 22.3125H12.9375C8.82988 22.3125 5.5 25.6424 5.5 29.75C5.5 33.8576 8.82988 37.1875 12.9375 37.1875H38.4375C42.5451 37.1875 45.875 33.8576 45.875 29.75C45.875 25.6424 42.5451 22.3125 38.4375 22.3125Z" stroke="white" stroke-width="4" stroke-linecap="round" stroke-linejoin="round"/>
<path d="M11.875 30.8125L13.5665 29.9667C14.3711 29.5645 15.2518 29.3372 16.1507 29.2998C17.0495 29.2625 17.946 29.4159 18.7812 29.75L19.2317 29.9306C19.9254 30.208 20.67 30.3353 21.4165 30.3042C22.1629 30.2731 22.8943 30.0842 23.5625 29.75V29.75C24.2307 29.4158 24.9621 29.2269 25.7085 29.1958C26.455 29.1646 27.1996 29.292 27.8932 29.5694L28.9132 29.9774C29.5696 30.2401 30.2741 30.3608 30.9805 30.3315C31.6869 30.3022 32.379 30.1236 33.0113 29.8074V29.8074C33.7064 29.4599 34.4729 29.2789 35.25 29.2789C36.0271 29.2789 36.7936 29.4599 37.4887 29.8074L39.5 30.8125" stroke="white" stroke-width="4" stroke-linecap="round" stroke-linejoin="round"/>
<path d="M18.25 18.6469C19.717 18.6469 20.9063 17.4577 20.9063 15.9907C20.9063 14.5237 19.717 13.3344 18.25 13.3344C16.783 13.3344 15.5938 14.5237 15.5938 15.9907C15.5938 17.4577 16.783 18.6469 18.25 18.6469Z" fill="white"/>
<path d="M25.4219 15.725C26.8889 15.725 28.0781 14.5358 28.0781 13.0688C28.0781 11.6018 26.8889 10.4125 25.4219 10.4125C23.9549 10.4125 22.7656 11.6018 22.7656 13.0688C22.7656 14.5358 23.9549 15.725 25.4219 15.725Z" fill="white"/>
</svg>
