<svg width="52" height="51" viewBox="0 0 52 51" fill="none" xmlns="http://www.w3.org/2000/svg">
<path d="M25.6771 5.07959C23.7136 5.07959 22.4157 6.45914 21.6787 7.69844C20.929 8.95559 20.5312 10.4269 20.4777 11.3755C20.3731 13.2625 20.6562 14.9149 21.5971 16.1083C22.5763 17.3527 24.0451 17.8296 25.6771 17.8296C27.3321 17.8296 28.7958 17.2966 29.7699 16.0522C30.7108 14.8486 31.0143 13.209 30.8919 11.3628C30.8332 10.4652 30.4303 9.00149 29.6832 7.73924C28.9513 6.50249 27.6534 5.07959 25.6797 5.07959H25.6771ZM23.0251 11.5158C23.0506 10.9981 23.3209 9.92459 23.8692 9.00149C24.4302 8.06309 25.0549 7.62959 25.6797 7.62959C26.2891 7.62959 26.9164 8.06819 27.4902 9.03464C28.0435 9.97814 28.3189 11.0568 28.3495 11.5285C28.449 13.0585 28.1608 13.9714 27.763 14.4814C27.3984 14.9455 26.7813 15.2796 25.6771 15.2796C24.5296 15.2796 23.938 14.9608 23.6014 14.5299C23.2189 14.0454 22.9333 13.1427 23.0226 11.5158H23.0251Z" fill="white"/>
<path d="M12.9374 20.4C11.5847 20.4 10.2875 20.9373 9.33111 21.8937C8.37467 22.8502 7.83735 24.1474 7.83735 25.5V40.8H6.56235C6.2242 40.8 5.8999 40.9343 5.66079 41.1734C5.42168 41.4125 5.28735 41.7368 5.28735 42.075C5.28735 42.4131 5.42168 42.7374 5.66079 42.9765C5.8999 43.2156 6.2242 43.35 6.56235 43.35H44.8124C45.1505 43.35 45.4748 43.2156 45.7139 42.9765C45.953 42.7374 46.0874 42.4131 46.0874 42.075C46.0874 41.7368 45.953 41.4125 45.7139 41.1734C45.4748 40.9343 45.1505 40.8 44.8124 40.8H43.5374V25.5C43.5374 24.1474 43 22.8502 42.0436 21.8937C41.0872 20.9373 39.79 20.4 38.4374 20.4H12.9374ZM40.9874 40.8H10.3874V30.9009L14.3271 34.4199C14.8273 34.8672 15.4108 35.2114 16.0443 35.4328C16.6777 35.6542 17.3486 35.7484 18.0185 35.71C18.6885 35.6716 19.3442 35.5014 19.9482 35.2091C20.5523 34.9169 21.0927 34.5083 21.5385 34.0068L23.7825 31.4823C24.0217 31.213 24.3153 30.9976 24.6438 30.85C24.9724 30.7024 25.3285 30.6261 25.6886 30.6261C26.0488 30.6261 26.4049 30.7024 26.7334 30.85C27.062 30.9976 27.3555 31.213 27.5948 31.4823L29.8362 34.0068C30.2819 34.5088 30.8223 34.918 31.4265 35.2107C32.0306 35.5034 32.6866 35.674 33.3569 35.7126C34.0271 35.7512 34.6984 35.6571 35.3321 35.4357C35.9659 35.2143 36.5498 34.87 37.0502 34.4224L40.9874 30.9009V40.8ZM40.9874 27.4788L35.3493 32.5201C35.0992 32.7438 34.8074 32.9159 34.4907 33.0266C34.174 33.1373 33.8385 33.1844 33.5036 33.1652C33.1686 33.146 32.8407 33.0609 32.5387 32.9148C32.2367 32.7686 31.9665 32.5643 31.7436 32.3136L29.4996 29.7891C29.0211 29.2506 28.434 28.8196 27.7769 28.5245C27.1198 28.2294 26.4077 28.0768 25.6874 28.0768C24.967 28.0768 24.2549 28.2294 23.5978 28.5245C22.9407 28.8196 22.3536 29.2506 21.8751 29.7891L19.6311 32.3136C19.4082 32.5643 19.138 32.7686 18.836 32.9148C18.534 33.0609 18.2061 33.146 17.8711 33.1652C17.5362 33.1844 17.2007 33.1373 16.884 33.0266C16.5673 32.9159 16.2755 32.7438 16.0254 32.5201L10.3874 27.4788V25.5C10.3874 24.8237 10.656 24.1751 11.1342 23.6968C11.6124 23.2186 12.2611 22.95 12.9374 22.95H38.4374C39.1137 22.95 39.7623 23.2186 40.2405 23.6968C40.7187 24.1751 40.9874 24.8237 40.9874 25.5V27.4788Z" fill="white"/>
</svg>
