<svg width="52" height="51" viewBox="0 0 52 51" fill="none" xmlns="http://www.w3.org/2000/svg">
<path d="M35.6475 35.9911C40.1557 31.484 37.1509 16.4581 30.3881 9.69637C27.3834 6.69055 18.7431 0.303867 9.35274 9.69637C-0.0397612 19.0867 6.34693 27.727 9.35274 30.7317C16.1145 37.4946 31.1404 40.4993 35.6475 35.9911V35.9911Z" stroke="white" stroke-width="4" stroke-linecap="round" stroke-linejoin="round"/>
<path d="M43.75 43.5625L36.3125 36.125" stroke="white" stroke-width="4"/>
<path d="M43.1394 40.6972C42.1021 41.7345 42.1021 43.4164 43.1394 44.4537C44.1767 45.491 45.8586 45.491 46.8959 44.4537C47.9332 43.4164 47.9332 41.7345 46.8959 40.6972C45.8586 39.6599 44.1767 39.6599 43.1394 40.6972Z" fill="white"/>
<path d="M40.8848 42.9518C39.8474 43.9891 39.8474 45.6709 40.8848 46.7083C41.9221 47.7456 43.6039 47.7456 44.6413 46.7083C45.6786 45.6709 45.6786 43.9891 44.6413 42.9518C43.6039 41.9144 41.9221 41.9144 40.8848 42.9518Z" fill="white"/>
<path d="M18.25 21.25C19.4236 21.25 20.375 20.2986 20.375 19.125C20.375 17.9514 19.4236 17 18.25 17C17.0764 17 16.125 17.9514 16.125 19.125C16.125 20.2986 17.0764 21.25 18.25 21.25Z" fill="white"/>
<path d="M12.9375 24.4375C14.1111 24.4375 15.0625 23.4861 15.0625 22.3125C15.0625 21.1389 14.1111 20.1875 12.9375 20.1875C11.7639 20.1875 10.8125 21.1389 10.8125 22.3125C10.8125 23.4861 11.7639 24.4375 12.9375 24.4375Z" fill="white"/>
<path d="M18.25 27.625C19.4236 27.625 20.375 26.6736 20.375 25.5C20.375 24.3264 19.4236 23.375 18.25 23.375C17.0764 23.375 16.125 24.3264 16.125 25.5C16.125 26.6736 17.0764 27.625 18.25 27.625Z" fill="white"/>
</svg>
