<svg width="52" height="51" viewBox="0 0 52 51" fill="none" xmlns="http://www.w3.org/2000/svg">
<g clip-path="url(#clip0_56_3443)">
<path d="M33.6565 15.1406C33.6565 15.6134 33.5163 16.0757 33.2536 16.4688C32.9909 16.8619 32.6175 17.1683 32.1807 17.3493C31.7439 17.5302 31.2632 17.5776 30.7995 17.4853C30.3357 17.3931 29.9097 17.1654 29.5754 16.8311C29.2411 16.4967 29.0134 16.0708 28.9212 15.607C28.8289 15.1433 28.8763 14.6626 29.0572 14.2258C29.2381 13.7889 29.5445 13.4156 29.9377 13.1529C30.3308 12.8902 30.793 12.75 31.2658 12.75C31.8999 12.75 32.5079 13.0019 32.9563 13.4502C33.4046 13.8985 33.6565 14.5066 33.6565 15.1406ZM41.1686 31.774C37.099 36.9439 30.5664 39.7647 21.7412 40.1661L17.5943 50.0242C17.4727 50.3133 17.2685 50.5601 17.0073 50.7337C16.746 50.9072 16.4394 50.9999 16.1258 51C16.0939 51 16.0619 50.999 16.0298 50.9972C15.7004 50.9775 15.3852 50.8559 15.1278 50.6494C14.8704 50.4428 14.6835 50.1615 14.5928 49.8442L11.6484 39.5386L1.34279 36.5873C1.0256 36.4965 0.744419 36.3095 0.53804 36.0521C0.33166 35.7947 0.210257 35.4795 0.190581 35.1502C0.170906 34.8209 0.253928 34.4935 0.428193 34.2134C0.602457 33.9332 0.859373 33.714 1.16349 33.5861L11.017 29.4419C11.3378 22.4322 13.1863 16.871 16.5247 12.8398L16.5298 12.8339C17.3883 11.7958 18.3548 10.8521 19.4129 10.0185C27.6042 3.57219 39.2103 5.44723 42.5721 6.17578C43.1698 6.30604 43.7174 6.6052 44.15 7.03769C44.5825 7.47017 44.8818 8.01779 45.0121 8.61541C45.7405 11.9776 47.6159 23.5839 41.1686 31.7742V31.774ZM32.9648 34.3646C31.07 33.6586 29.4019 32.4522 28.1381 30.8737C26.8743 29.2953 26.0619 27.4038 25.7873 25.4004C23.7834 25.1258 21.8915 24.313 20.3128 23.0486C18.7341 21.7842 17.5278 20.1155 16.8221 18.22C15.1757 21.517 14.2858 25.6393 14.1679 30.5542C14.1605 30.8614 14.0645 31.1598 13.8914 31.4137C13.7183 31.6676 13.4755 31.866 13.1923 31.9852L6.57228 34.7693L13.3764 36.7178C13.6366 36.7923 13.8736 36.9319 14.0649 37.1234C14.2563 37.3148 14.3957 37.5519 14.4701 37.8121L16.4129 44.6121L19.1986 37.9904C19.3177 37.7072 19.5162 37.4645 19.7701 37.2915C20.0241 37.1185 20.3226 37.0225 20.6298 37.0153C25.5449 36.8985 29.6673 36.0098 32.9646 34.3646H32.9648ZM41.8969 9.29017C38.8796 8.63693 28.481 6.93799 21.3842 12.5235C20.6369 13.1125 19.9447 13.7683 19.3163 14.4828C19.3548 16.5708 20.2106 18.5604 21.6999 20.0243C23.1891 21.4883 25.1931 22.3098 27.2815 22.3125C27.7042 22.3125 28.1095 22.4804 28.4084 22.7793C28.7073 23.0782 28.8752 23.4836 28.8752 23.9063C28.8779 25.9942 29.6991 27.9978 31.1625 29.487C32.626 30.9763 34.615 31.8323 36.7025 31.8714C37.4179 31.2428 38.0744 30.5502 38.664 29.8023C44.2497 22.7066 42.5508 12.3081 41.8969 9.29017Z" fill="white"/>
</g>
<defs>
<clipPath id="clip0_56_3443">
<rect width="51" height="51" fill="white" transform="translate(0.1875)"/>
</clipPath>
</defs>
</svg>
