<svg width="43" height="43" viewBox="0 0 43 43" fill="none" xmlns="http://www.w3.org/2000/svg">
<path d="M5.37505 14.8054V14.7812C5.37502 12.3922 6.08256 10.0566 7.40841 8.06929C8.73427 6.08193 10.619 4.53178 12.8249 3.61441C15.0308 2.69704 17.4589 2.45356 19.8031 2.91467C22.1472 3.37579 24.3022 4.52084 25.9962 6.20538C27.3291 5.54751 28.8179 5.27091 30.2982 5.40613C31.7784 5.54136 33.1924 6.08315 34.384 6.97165C35.5756 7.86015 36.4984 9.06076 37.0505 10.4408C37.6025 11.8209 37.7623 13.3268 37.5122 14.792C37.8799 14.8261 38.2367 14.9356 38.5602 15.1138C38.8837 15.292 39.167 15.5349 39.3925 15.8274C39.6179 16.1199 39.7807 16.4558 39.8705 16.814C39.9604 17.1722 39.9755 17.5451 39.9148 17.9095C38.7001 25.2168 35.6954 29.842 30.9063 31.7877V33.5937C30.9063 34.6629 30.4816 35.6883 29.7256 36.4443C28.9696 37.2003 27.9442 37.625 26.875 37.625H16.1251C15.0559 37.625 14.0305 37.2003 13.2745 36.4443C12.5185 35.6883 12.0938 34.6629 12.0938 33.5937V31.7877C7.30468 29.842 4.30005 25.2168 3.0853 17.9095C3.02668 17.5548 3.03979 17.192 3.12385 16.8426C3.20792 16.4931 3.36124 16.164 3.57474 15.8749C3.78823 15.5857 4.05757 15.3423 4.3668 15.159C4.67603 14.9758 5.01888 14.8565 5.37505 14.8081V14.8054ZM8.06255 14.7812H10.7501C10.7501 12.9993 11.4579 11.2903 12.7179 10.0303C13.9779 8.77031 15.6869 8.06244 17.4688 8.06244C19.2507 8.06244 20.9597 8.77031 22.2197 10.0303C23.4797 11.2903 24.1875 12.9993 24.1875 14.7812H26.875C26.875 12.2865 25.884 9.89399 24.12 8.12997C22.356 6.36595 19.9635 5.37494 17.4688 5.37494C14.9741 5.37494 12.5816 6.36595 10.8176 8.12997C9.05357 9.89399 8.06255 12.2865 8.06255 14.7812ZM13.4376 14.7812H21.5001C21.5001 13.712 21.0753 12.6867 20.3193 11.9307C19.5633 11.1747 18.538 10.7499 17.4688 10.7499C16.3996 10.7499 15.3743 11.1747 14.6183 11.9307C13.8623 12.6867 13.4376 13.712 13.4376 14.7812ZM31.8899 14.7812H34.7682C34.9711 13.987 34.99 13.1569 34.8235 12.3543C34.657 11.5516 34.3095 10.7976 33.8074 10.1496C33.3054 9.50156 32.662 8.97672 31.9264 8.61503C31.1908 8.25334 30.3823 8.06434 29.5625 8.06244C28.9175 8.06244 28.3048 8.17532 27.735 8.38226C28.2107 9.14551 28.6031 9.96788 28.9041 10.8306C29.416 10.7036 29.9539 10.7298 30.451 10.9058C30.9482 11.0817 31.3827 11.3999 31.7007 11.8206C32.0187 12.2413 32.2061 12.7462 32.2398 13.2725C32.2734 13.7988 32.1518 14.3234 31.8899 14.7812ZM28.2188 32.25H14.7813V33.5937C14.7813 33.9501 14.9229 34.2919 15.1749 34.5439C15.4269 34.7959 15.7687 34.9375 16.1251 34.9375H26.875C27.2314 34.9375 27.5732 34.7959 27.8252 34.5439C28.0772 34.2919 28.2188 33.9501 28.2188 33.5937V32.25ZM13.8353 29.5625H29.1648C33.4272 28.1919 36.1254 24.3165 37.2649 17.4687H5.73518C6.87468 24.3165 9.57293 28.1919 13.8353 29.5625Z" fill="white"/>
</svg>
