<svg width="51" height="51" viewBox="0 0 51 51" fill="none" xmlns="http://www.w3.org/2000/svg">
<path d="M19.125 22.9551C19.6305 22.9551 20.1153 22.7543 20.4728 22.3968C20.8303 22.0393 21.0311 21.5545 21.0311 21.049C21.0311 20.5434 20.8303 20.0586 20.4728 19.7011C20.1153 19.3437 19.6305 19.1429 19.125 19.1429C18.6194 19.1429 18.1346 19.3437 17.7771 19.7011C17.4196 20.0586 17.2188 20.5434 17.2188 21.049C17.2188 21.5545 17.4196 22.0393 17.7771 22.3968C18.1346 22.7543 18.6194 22.9551 19.125 22.9551ZM28.6186 26.1503C28.6186 26.6558 28.4178 27.1406 28.0603 27.4981C27.7028 27.8556 27.218 28.0564 26.7125 28.0564C26.2069 28.0564 25.7221 27.8556 25.3646 27.4981C25.0072 27.1406 24.8064 26.6558 24.8064 26.1503C24.8064 25.6447 25.0072 25.1599 25.3646 24.8024C25.7221 24.445 26.2069 24.2441 26.7125 24.2441C27.218 24.2441 27.7028 24.445 28.0603 24.8024C28.4178 25.1599 28.6186 25.6447 28.6186 26.1503ZM19.1352 34.4454C19.3866 34.4454 19.6357 34.3959 19.868 34.2996C20.1004 34.2034 20.3115 34.0623 20.4893 33.8845C20.6671 33.7067 20.8082 33.4956 20.9044 33.2632C21.0007 33.0309 21.0502 32.7818 21.0502 32.5304C21.0502 32.2789 21.0007 32.0298 20.9044 31.7975C20.8082 31.5651 20.6671 31.354 20.4893 31.1762C20.3115 30.9984 20.1004 30.8573 19.868 30.7611C19.6357 30.6648 19.3866 30.6153 19.1352 30.6153C18.6272 30.6153 18.1401 30.8171 17.781 31.1762C17.4219 31.5353 17.2201 32.0224 17.2201 32.5304C17.2201 33.0383 17.4219 33.5254 17.781 33.8845C18.1401 34.2436 18.6272 34.4454 19.1352 34.4454ZM10.2 10.0878C10.2 7.29555 12.4822 4.9317 15.3765 5.1102C26.7163 5.8089 36.6613 9.6237 44.4516 17.0621C46.6624 19.1709 46.2264 22.616 43.9339 24.3755C40.3665 27.1294 36.7752 29.852 33.1602 32.5431V36.9801C33.1602 38.8085 31.7449 40.8051 29.3352 40.8051C28.8736 40.8051 28.4478 40.7286 28.0653 40.6011V40.8128C28.0653 42.6309 26.6475 44.6148 24.2326 44.6148C22.3099 44.6148 21.0426 43.35 20.5963 41.9373C19.1989 42.9828 17.6715 44.1201 16.3072 45.135C13.7827 47.0144 10.2 45.2115 10.2 42.075V10.0878ZM28.0627 36.9801C28.0627 37.6406 28.56 38.2551 29.3352 38.2551C30.1129 38.2551 30.6102 37.6355 30.6102 36.9801V31.8954C30.6103 31.6944 30.658 31.4964 30.7493 31.3173C30.8406 31.1383 30.9729 30.9834 31.1355 30.8652C33.1245 29.4219 36.5109 26.849 39.5097 24.5565C32.6425 18.0209 23.0163 14.1423 12.75 14.0607V42.0725C12.7507 42.3084 12.8168 42.5395 12.941 42.74C13.0653 42.9406 13.2427 43.1028 13.4536 43.2085C13.6645 43.3142 13.9006 43.3593 14.1356 43.3388C14.3707 43.3184 14.5954 43.2331 14.7849 43.0925C16.7892 41.5982 19.153 39.8387 20.9278 38.5076C21.1172 38.3655 21.3425 38.279 21.5783 38.2577C21.8141 38.2364 22.0512 38.2813 22.263 38.3872C22.4748 38.493 22.6529 38.6558 22.7774 38.8572C22.9019 39.0587 22.9678 39.2908 22.9678 39.5276V40.8128C22.9678 41.4426 23.4523 42.0674 24.2326 42.0674C24.3997 42.0714 24.5659 42.042 24.7214 41.9807C24.8768 41.9194 25.0185 41.8276 25.1378 41.7106C25.2572 41.5936 25.3518 41.4539 25.4162 41.2997C25.4806 41.1454 25.5134 40.9799 25.5127 40.8128V36.9801C25.5127 36.642 25.647 36.3177 25.8861 36.0785C26.1252 35.8394 26.4496 35.7051 26.7877 35.7051C27.1259 35.7051 27.4502 35.8394 27.6893 36.0785C27.9284 36.3177 28.0627 36.642 28.0627 36.9801ZM42.3784 22.3559C43.5642 21.4455 43.6534 19.8237 42.6895 18.9032C35.4042 11.9493 26.0635 8.32065 15.2209 7.65255C13.8975 7.57095 12.75 8.65725 12.75 10.0878V11.5107C23.7838 11.5949 34.1751 15.8126 41.5573 22.9857L42.3784 22.3559Z" fill="white"/>
</svg>
