<svg width="52" height="51" viewBox="0 0 52 51" fill="none" xmlns="http://www.w3.org/2000/svg">
<path d="M44.8125 38.25V23.375H6.5625V38.25C6.5625 39.3772 7.01027 40.4582 7.8073 41.2552C8.60433 42.0522 9.68533 42.5 10.8125 42.5H40.5625C41.6897 42.5 42.7707 42.0522 43.5677 41.2552C44.3647 40.4582 44.8125 39.3772 44.8125 38.25Z" stroke="white" stroke-width="4" stroke-linecap="round" stroke-linejoin="round"/>
<path d="M6.5625 31.875H44.8125" stroke="white" stroke-width="4" stroke-linecap="round" stroke-linejoin="round"/>
<path d="M6.5625 27.625V36.125" stroke="white" stroke-width="4" stroke-linecap="round" stroke-linejoin="round"/>
<path d="M44.8125 27.625V36.125" stroke="white" stroke-width="4" stroke-linecap="round" stroke-linejoin="round"/>
<path d="M6.63356 23.375H44.8124C44.8124 21.233 32.2674 12.1316 25.7224 7.84868C19.1774 3.5668 13.7236 9.45518 9.35994 14.8081C5.86962 19.0931 6.63356 21.2351 6.63356 23.375Z" stroke="white" stroke-width="4" stroke-linecap="round" stroke-linejoin="round"/>
</svg>
